<?xml version="1.0" encoding="utf-8"?>
<!-- Generator: Adobe Illustrator 16.0.3, SVG Export Plug-In . SVG Version: 6.00 Build 0)  -->
<!DOCTYPE svg PUBLIC "-//W3C//DTD SVG 1.1//EN" "http://www.w3.org/Graphics/SVG/1.1/DTD/svg11.dtd">
<svg version="1.1" id="Layer_1" xmlns="http://www.w3.org/2000/svg" xmlns:xlink="http://www.w3.org/1999/xlink" x="0px" y="0px"
	 width="512px" height="512px" viewBox="0 0 512 512" enable-background="new 0 0 512 512" xml:space="preserve">
<g>
	<g id="XMLID_1_">
		<path fill="#3FA9F5" d="M351.192,285.306c0.014-4.165,0.091-8.337,0-12.495c-0.152-6.632-0.707-13.271-0.582-19.895
			c0.236-11.85,0.776-23.692,1.331-35.528c0.256-5.433,0.832-10.852,1.31-16.271c0.755-8.503,1.42-17.005,2.391-25.48
			c0.651-5.738,1.697-11.434,2.695-17.123c0.742-4.248,1.698-8.468,2.633-13.077c3.333,7.394,6.68,14.337,9.59,21.461
			c1.531,3.749,2.322,7.803,3.417,11.725c0.762,2.75,1.579,5.495,2.182,8.281c0.804,3.728,1.4,7.505,2.121,11.247
			c0.803,4.15,1.857,8.267,2.445,12.445c1.269,9.05,2.738,18.107,3.334,27.213c0.526,8.177-0.028,16.416-0.056,24.635
			c-0.007,1.719,0.229,3.437,0.312,5.163c0.229,4.574,0.728,9.161,0.568,13.728c-0.173,5.253-0.963,10.484-1.434,15.73
			c-0.215,2.363-0.291,4.74-0.464,7.11c-0.215,2.987-0.326,5.987-0.742,8.946c-0.603,4.262-1.524,8.475-2.162,12.736
			c-0.499,3.347-0.7,6.75-1.157,10.11c-0.374,2.716-0.873,5.419-1.42,8.101c-0.936,4.608-1.912,9.209-2.945,13.797
			c-0.624,2.765-1.331,5.516-2.1,8.246c-0.505,1.781-1.192,3.507-2.064,6.008c-0.797-1.358-1.304-2.023-1.615-2.771
			c-2.239-5.363-4.733-10.644-6.563-16.146c-2.099-6.306-3.839-12.765-5.28-19.258c-1.337-6.063-2.225-12.245-3.035-18.412
			c-0.658-5.045-0.845-10.152-1.365-15.225c-0.388-3.797-1.019-7.574-1.441-11.371C350.964,287.745,351.185,286.519,351.192,285.306
			z"/>
		<path fill="#3FA9F5" d="M329.419,158.445c-1.503-4.706-0.866-9.542-0.734-14.317c0.097-3.597,0.894-7.172,1.081-10.769
			c0.319-6.146,1.116-12.196,3.562-17.865c0.547-1.275,2.64-3.125,3.416-2.869c3.95,1.296,6.673,5.662,4.885,9.965
			c-0.249,0.603-0.443,1.268-0.478,1.912c-0.305,6.646-1.338,13.104-3.971,19.299c-0.762,1.795-0.554,3.991-0.887,5.987
			c-0.582,3.534-1.455,7.034-1.802,10.582c-0.09,0.921-0.111,1.836-0.097,2.758l-4.228,0.034
			C330.167,161.632,329.939,160.066,329.419,158.445z"/>
		<path fill="#3FA9F5" d="M327.389,218.864c-1.732,3.791-1.892,8.419-2.218,12.716c-0.354,4.699-0.097,9.445-0.097,14.164
			c0,1.22,0.104,2.433,0.097,3.646c-0.069,6.992-0.229,13.984-0.214,20.983c0,2.162,0.083,4.331,0.167,6.493l-2.468,0.091
			c-0.125-2.495-0.374-4.997-0.457-7.498c-0.201-6.251-0.305-12.501-0.458-18.745c-0.007-0.222-0.069-0.443-0.104-0.658
			c-0.396-2.19-0.853-4.359-1.164-6.555c-1.15-8.149-0.866-16.486-3.292-24.462c-0.68-2.217-1.622-4.373-2.107-6.632
			c-0.942-4.421-1.615-8.897-2.453-13.339c-0.298-1.58-0.34-3.417-1.199-4.636c-2.134-3.021-0.458-5.447,1.054-7.616
			c2.009-2.882,4.545-5.419,6.937-8.031c0.61-0.658,1.517-1.393,2.328-1.441c2.377-0.152,3.86-1.282,4.997-3.278
			c1.988-3.499,3.43-7.075,3.43-10.9l4.228-0.034c0.048,3.756,0.651,7.532-0.492,11.316c-0.894,2.958-0.887,6.188-1.338,9.292
			c-0.422,2.862-0.755,5.752-1.427,8.558c-0.783,3.292-2.599,6.438-0.845,9.944c0.131,0.277,0.159,0.686,0.069,0.984
			C328.803,208.304,329.738,213.736,327.389,218.864z"/>
		<path fill="#3FA9F5" d="M292.526,315.956c0.027,2.093-0.742,4.22-1.283,6.299c-0.907,3.465-1.857,6.93-2.973,10.333
			c-0.208,0.651-1.282,1.019-1.954,1.511c-0.458-0.693-0.936-1.379-1.358-2.093c-0.194-0.326-0.181-0.818-0.423-1.061
			c-2.287-2.231-2.765-5.148-3.583-8.08c-1.657-5.953-1.899-12.058-2.599-18.108c-0.111-0.963,0.437-2.002,0.693-3
			c0.173-0.68,0.568-1.373,0.526-2.038c-0.139-2.599,1.213-4.511,2.55-6.528c1.165-1.76,2.703-3.672,2.863-5.62
			c0.332-4.144,0.928-8.447-0.859-12.48c-2.232-5.01-4.345-9.992-2.523-15.688c0.825-2.585,1.282-5.287,2.01-7.907
			c1.407-5.086,2.682-10.221,4.394-15.204c1.178-3.437,2.994-6.652,4.532-9.964c0.201,0.028,0.409,0.062,0.617,0.09
			c0.707,3.444,1.622,6.861,2.065,10.339c0.817,6.319,1.663,12.667,1.947,19.028c0.458,10.249,0.693,20.47-0.963,30.719
			C294.625,296.255,292.401,305.963,292.526,315.956z"/>
		<path fill="#3FA9F5" d="M236.375,285.098c2.085-1.691,3.901-1.975,6.396-0.243c2.661,1.85,5.932,2.813,8.842,4.338
			c0.866,0.457,1.933,1.483,2.01,2.328c0.284,3.215,0.256,6.466,0.242,9.702c-0.014,3.999-0.138,7.99-0.194,11.988
			c-0.028,1.753-0.007,3.507-0.007,5.724c-2.224-1.331-4.005-2.328-5.709-3.423c-4.706-3.028-9.376-6.105-14.067-9.147
			c-2.841-1.836-5.717-3.617-8.523-5.502c-0.915-0.617-2.01-1.352-2.356-2.288c-0.354-0.921-0.284-2.591,0.325-3.187
			c1.892-1.829,4.145-3.292,6.237-4.92C231.85,288.688,234.123,286.906,236.375,285.098z"/>
		<path fill="#3FA9F5" d="M203.251,371.864c-4.331-0.007-8.703-0.139-12.986-0.728c-3.25-0.45-6.438-0.977-9.57-2.758
			c-2.792-1.587-6.646-1.456-10.055-1.774c-5.267-0.492-5.945-1.434-6.438-6.077c-0.167-1.601-0.284-3.215-0.298-4.83
			c-0.007-0.686,0.104-1.524,0.499-2.044c2.578-3.389,5.162-6.784,7.914-10.035c2.578-3.042,5.231-6.049,8.087-8.835
			c6.694-6.548,13.526-12.944,20.29-19.423c1.109-1.06,2.023-0.645,3.098,0.076c5.336,3.59,10.728,7.096,16.049,10.707
			c2.834,1.92,5.509,4.082,8.35,5.995c3.985,2.667,8.17,5.044,12.051,7.852c5.135,3.707,11.074,6.354,15.1,11.53
			c0.97,1.262,2.453,2.156,3.292,3.479c1.614,2.53-0.153,6.604-3.119,7.249c-4.103,0.894-8.26,1.539-12.383,2.35
			c-1.081,0.214-2.335,0.395-3.118,1.053c-2.363,1.989-5.01,2.543-7.949,2.301c-3.264-0.624-5.849,1.144-8.704,2.218
			c-2.259,0.845-4.865,0.88-7.331,1.061C211.775,371.546,207.513,371.871,203.251,371.864z"/>
		<g>
			<path fill="#3FA9F5" d="M10.898,461.102c0,22.092,17.909,40,40,40h410.204c22.091,0,40-17.908,40-40V50.898
				c0-22.091-17.909-40-40-40H50.898c-22.091,0-40,17.909-40,40V461.102z"/>
		</g>
		<path fill="#3FA9F5" d="M170.654,288.66c1.331,1.303,2.564,2.703,3.887,4.006c1.497,1.469,2.994,2.952,4.608,4.282
			c1.143,0.928,1.275,1.892,0.326,2.82c-2.481,2.439-5.086,4.753-7.602,7.166c-0.991,0.956-1.836,2.064-2.799,3.056
			c-3.465,3.575-6.971,7.103-10.401,10.706c-1.144,1.199-2.01,0.915-2.509-0.401c-0.665-1.747-1.164-3.562-1.573-5.392
			c-1.22-5.405-2.266-10.858-3.562-16.25c-0.95-3.936-2.141-7.817-3.326-11.684c-1.809-5.911-3.721-11.794-5.571-17.691
			c-1.192-3.791-2.314-7.595-3.548-11.372c-0.942-2.911-2.023-5.772-3.007-8.676c-0.159-0.478-0.097-1.033-0.139-1.552
			c0.132-0.056,0.271-0.118,0.402-0.173c1.303,1.747,2.564,3.521,3.901,5.239c2.169,2.8,5.003,5.281,6.438,8.413
			c2.259,4.906,6.916,7.429,9.958,11.503c3.174,4.262,6.875,8.143,10.422,12.12C167.806,286.179,169.317,287.336,170.654,288.66z"/>
		<path fill="#FFFFFF" d="M278.355,304.757c0.7,6.05,0.942,12.155,2.599,18.108c0.817,2.931,1.296,5.848,3.583,8.08
			c0.242,0.243,0.229,0.735,0.423,1.061c0.422,0.714,0.901,1.4,1.358,2.093c0.672-0.492,1.746-0.859,1.954-1.511
			c1.116-3.403,2.065-6.868,2.973-10.333c0.541-2.079,1.31-4.206,1.283-6.299c-0.125-9.993,2.099-19.701,3.679-29.451
			c1.656-10.249,1.42-20.47,0.963-30.719c-0.284-6.361-1.129-12.709-1.947-19.028c-0.443-3.479-1.358-6.895-2.065-10.339
			c-0.208-0.027-0.416-0.062-0.617-0.09c-1.538,3.312-3.354,6.527-4.532,9.964c-1.711,4.983-2.986,10.118-4.394,15.204
			c-0.728,2.62-1.185,5.322-2.01,7.907c-1.822,5.696,0.291,10.678,2.523,15.688c1.788,4.034,1.191,8.337,0.859,12.48
			c-0.16,1.948-1.698,3.86-2.863,5.62c-1.337,2.017-2.688,3.929-2.55,6.528c0.042,0.665-0.353,1.358-0.526,2.038
			C278.792,302.755,278.244,303.794,278.355,304.757z M223.008,298.576c0.346,0.936,1.441,1.67,2.356,2.288
			c2.807,1.885,5.682,3.666,8.523,5.502c4.691,3.042,9.362,6.119,14.067,9.147c1.705,1.095,3.485,2.092,5.709,3.423
			c0-2.217-0.021-3.97,0.007-5.724c0.056-3.998,0.18-7.989,0.194-11.988c0.014-3.236,0.042-6.486-0.242-9.702
			c-0.077-0.845-1.144-1.871-2.01-2.328c-2.911-1.524-6.181-2.488-8.842-4.338c-2.495-1.732-4.311-1.448-6.396,0.243
			c-2.252,1.808-4.525,3.589-6.805,5.371c-2.092,1.628-4.345,3.091-6.237,4.92C222.724,295.985,222.654,297.654,223.008,298.576z
			 M156.164,320.294c0.499,1.316,1.365,1.601,2.509,0.401c3.43-3.603,6.937-7.131,10.401-10.706c0.963-0.992,1.809-2.1,2.799-3.056
			c2.516-2.412,5.121-4.727,7.602-7.166c0.949-0.929,0.817-1.892-0.326-2.82c-1.615-1.331-3.112-2.813-4.608-4.282
			c-1.323-1.303-2.557-2.703-3.887-4.006c-1.337-1.324-2.848-2.48-4.096-3.88c-3.548-3.978-7.248-7.858-10.422-12.12
			c-3.042-4.074-7.699-6.597-9.958-11.503c-1.435-3.132-4.269-5.613-6.438-8.413c-1.337-1.718-2.599-3.492-3.901-5.239
			c-0.131,0.056-0.27,0.118-0.402,0.173c0.042,0.52-0.021,1.074,0.139,1.552c0.984,2.904,2.065,5.766,3.007,8.676
			c1.234,3.777,2.356,7.581,3.548,11.372c1.85,5.897,3.762,11.78,5.571,17.691c1.185,3.867,2.376,7.748,3.326,11.684
			c1.296,5.392,2.342,10.845,3.562,16.25C155,316.732,155.499,318.547,156.164,320.294z M170.64,366.604
			c3.41,0.318,7.263,0.187,10.055,1.774c3.132,1.781,6.32,2.308,9.57,2.758c4.283,0.589,8.655,0.721,12.986,0.728
			c4.262,0.007,8.524-0.318,12.779-0.637c2.466-0.181,5.072-0.215,7.331-1.061c2.855-1.074,5.44-2.841,8.704-2.218
			c2.938,0.243,5.585-0.312,7.949-2.301c0.783-0.658,2.037-0.838,3.118-1.053c4.123-0.811,8.281-1.456,12.383-2.35
			c2.966-0.645,4.733-4.719,3.119-7.249c-0.839-1.323-2.322-2.217-3.292-3.479c-4.026-5.176-9.965-7.823-15.1-11.53
			c-3.88-2.807-8.066-5.184-12.051-7.852c-2.841-1.913-5.516-4.075-8.35-5.995c-5.322-3.61-10.713-7.116-16.049-10.707
			c-1.074-0.721-1.989-1.136-3.098-0.076c-6.763,6.479-13.596,12.875-20.29,19.423c-2.855,2.786-5.509,5.793-8.087,8.835
			c-2.751,3.25-5.336,6.646-7.914,10.035c-0.396,0.52-0.506,1.358-0.499,2.044c0.014,1.615,0.131,3.229,0.298,4.83
			C164.695,365.17,165.374,366.112,170.64,366.604z M352.537,300.308c0.52,5.073,0.707,10.18,1.365,15.225
			c0.811,6.167,1.698,12.348,3.035,18.412c1.441,6.493,3.181,12.952,5.28,19.258c1.83,5.502,4.324,10.783,6.563,16.146
			c0.311,0.748,0.817,1.414,1.615,2.771c0.873-2.501,1.559-4.227,2.064-6.008c0.77-2.73,1.476-5.481,2.1-8.246
			c1.033-4.587,2.009-9.188,2.945-13.797c0.547-2.682,1.046-5.385,1.42-8.101c0.458-3.361,0.659-6.763,1.157-10.11
			c0.638-4.261,1.559-8.475,2.162-12.736c0.416-2.959,0.526-5.959,0.742-8.946c0.173-2.37,0.249-4.747,0.464-7.11
			c0.471-5.246,1.261-10.478,1.434-15.73c0.16-4.566-0.339-9.154-0.568-13.728c-0.083-1.726-0.319-3.444-0.312-5.163
			c0.028-8.219,0.582-16.458,0.056-24.635c-0.596-9.105-2.065-18.163-3.334-27.213c-0.588-4.179-1.642-8.295-2.445-12.445
			c-0.721-3.742-1.317-7.519-2.121-11.247c-0.603-2.786-1.42-5.53-2.182-8.281c-1.095-3.922-1.886-7.977-3.417-11.725
			c-2.911-7.124-6.257-14.067-9.59-21.461c-0.936,4.608-1.892,8.829-2.633,13.077c-0.998,5.689-2.044,11.385-2.695,17.123
			c-0.971,8.475-1.636,16.978-2.391,25.48c-0.479,5.418-1.054,10.838-1.31,16.271c-0.554,11.836-1.095,23.679-1.331,35.528
			c-0.125,6.625,0.43,13.263,0.582,19.895c0.091,4.158,0.014,8.33,0,12.495c-0.007,1.212-0.228,2.439-0.097,3.631
			C351.518,292.734,352.149,296.511,352.537,300.308z M408.404,276.706c-0.201,8.066-0.624,16.118-0.873,24.185
			c-0.077,2.48,0.208,4.975,0.152,7.463c-0.028,1.164-0.471,2.321-0.714,3.486c-0.402,2.002-0.963,3.991-1.157,6.015
			c-0.659,6.798-0.908,13.645-1.836,20.394c-0.77,5.614-2.28,11.123-3.438,16.68c-0.298,1.42-0.527,2.848-0.742,4.275
			c-0.596,3.943-1.074,7.9-1.781,11.822c-0.901,5.003-1.829,10.021-3.07,14.947c-0.499,1.989-1.94,3.722-2.779,5.648
			c-2.363,5.377-5.89,10.007-9.583,14.47c-2.564,3.104-8.614,5.793-13.049,2.848c-3.735-2.48-7.754-4.561-11.323-7.248
			c-1.753-1.324-2.8-3.619-4.103-5.509c-1.233-1.781-2.384-3.618-3.576-5.426c-2.01-3.056-4.359-5.939-5.952-9.196
			c-2.489-5.107-4.519-10.442-6.639-15.723c-1.165-2.897-2.267-5.834-3.14-8.835c-1.144-3.922-2.335-7.879-2.959-11.905
			c-0.957-6.244-1.351-12.57-2.155-18.841c-0.714-5.537-1.767-11.025-2.474-16.562c-0.326-2.571,0.028-5.225-0.305-7.788
			c-0.458-3.562-1.497-7.048-1.871-10.617c-0.256-2.446,0.319-4.961,0.298-7.449c-0.028-2.322-0.125-4.65-0.214-6.972
			c-0.083-2.162-0.167-4.331-0.167-6.493c-0.015-6.999,0.146-13.991,0.214-20.983c0.007-1.213-0.097-2.425-0.097-3.646
			c0-4.719-0.257-9.465,0.097-14.164c0.326-4.296,0.485-8.925,2.218-12.716c2.349-5.128,1.414-10.561,2.973-15.64
			c0.09-0.298,0.062-0.707-0.069-0.984c-1.753-3.506,0.062-6.653,0.845-9.944c0.672-2.806,1.005-5.696,1.427-8.558
			c0.451-3.104,0.444-6.334,1.338-9.292c1.143-3.784,0.54-7.56,0.492-11.316c-0.014-0.922,0.007-1.837,0.097-2.758
			c0.347-3.548,1.22-7.048,1.802-10.582c0.333-1.996,0.125-4.192,0.887-5.987c2.633-6.195,3.666-12.654,3.971-19.299
			c0.035-0.645,0.229-1.31,0.478-1.912c1.788-4.303-0.936-8.669-4.885-9.965c-0.776-0.256-2.869,1.594-3.416,2.869
			c-2.447,5.668-3.244,11.718-3.562,17.865c-0.187,3.597-0.984,7.172-1.081,10.769c-0.132,4.774-0.77,9.611,0.734,14.317
			c0.52,1.621,0.749,3.188,0.749,4.719c0,3.825-1.441,7.401-3.43,10.9c-1.137,1.996-2.62,3.125-4.997,3.278
			c-0.811,0.048-1.718,0.783-2.328,1.441c-2.391,2.612-4.927,5.149-6.937,8.031c-1.511,2.169-3.188,4.595-1.054,7.616
			c0.859,1.219,0.901,3.056,1.199,4.636c0.838,4.442,1.511,8.918,2.453,13.339c0.485,2.259,1.427,4.415,2.107,6.632
			c2.425,7.976,2.141,16.312,3.292,24.462c0.311,2.196,0.769,4.365,1.164,6.555c0.034,0.215,0.097,0.437,0.104,0.658
			c0.153,6.244,0.256,12.494,0.458,18.745c0.083,2.501,0.333,5.003,0.457,7.498c0.056,1.157,0.083,2.314,0.056,3.472
			c-0.146,5.703-0.533,11.406-1.04,17.095c-0.63,7.144-1.372,14.282-2.287,21.398c-0.402,3.112-1.296,6.182-2.093,9.231
			c-0.984,3.762-2.287,7.442-3.104,11.233c-1.4,6.5-5.543,11.045-10.395,15.064c-4.2,3.479-8.946,5.772-14.539,6.327
			c-1.025,0.104-2.432,2.183-2.633,3.506c-0.36,2.342-1.732,3.867-3.194,5.294c-3.95,3.86-8.448,6.708-14.116,7.561
			c-3.104,0.472-6.084,1.705-9.154,2.432c-1.996,0.472-4.046,0.686-6.084,0.942c-4.989,0.631-9.979,1.358-14.996,1.774
			c-2.585,0.208-5.218-0.229-7.831-0.264c-4.123-0.055-8.253,0-12.376-0.014c-2.391-0.014-5.024,0.547-7.124-0.256
			c-3.922-1.511-7.9-2.19-11.905-1.67c-6.95,0.908-14.109,0.056-20.893,2.425c-2.002,0.7-4.178,0.873-6.174,1.574
			c-2.896,1.005-3.652,2.806-3.416,5.841c0.263,3.312,0.131,6.652,0.173,9.979c0,0.277-0.021,0.568,0.055,0.832
			c1.407,4.871,1.379,9.771,1.102,14.822c-0.271,4.947,0.713,9.945,0.811,14.928c0.09,4.428-0.18,8.877-0.471,13.297
			c-0.27,4.102-0.645,8.197-1.206,12.266c-0.7,5.086-1.581,10.158-2.495,15.217c-0.603,3.326-0.998,6.771-2.21,9.883
			c-1.718,4.422-4.262,8.531-8.918,10.492c-1.781,0.748-3.874,0.748-5.828,1.094c-4.899,0.326-8.593-1.697-11.573-5.336
			c-2.017-2.459-1.864-5.752-0.693-7.9c4.262-7.836,6.077-16.193,6.958-24.912c0.437-4.303,1.344-8.564,1.732-12.875
			c0.271-2.965-0.007-5.973,0.028-8.959c0.014-1.719,0.305-3.445,0.208-5.156c-0.422-7.428-0.922-14.857-1.434-22.285
			c-0.333-4.761-0.659-9.522-1.15-14.262c-0.264-2.585-1.795-3.589-4.415-3.298c-5.294,0.589-12.113-3.319-14.206-8.205
			c-0.319-0.749-0.443-1.615-0.499-2.433c-0.45-6.694,1.102-13.062,3.804-19.077c1.823-4.061,4.56-7.713,6.41-11.773
			c0.991-2.176,1.573-4.893,1.282-7.235c-0.734-5.98-1.898-11.926-3.208-17.816c-1.116-5.01-2.779-9.896-4.012-14.884
			c-0.645-2.62-0.742-5.378-1.379-8.011c-0.769-3.229-1.815-6.396-2.799-9.576c-1.185-3.847-2.342-7.706-3.673-11.51
			c-0.942-2.716-2.176-5.336-3.215-8.018c-0.374-0.97-0.534-2.03-0.866-3.014c-3.077-8.987-6.167-17.969-9.244-26.957
			c-2.529-7.373-4.019-14.996-5.052-22.688c-0.374-2.772,0.492-5.717,0.069-8.475c-0.617-4.04,0.291-7.65,2.044-11.115
			c0.63-1.247,1.815-2.356,2.994-3.174c2.259-1.58,4.691-2.903,7.054-4.345c3.617-2.21,9.833-1.483,12.737,3.333
			c2.141,3.541,4.643,6.868,6.818,10.395c2.356,3.805,4.913,7.567,6.618,11.669c0.977,2.371,2.688,3.833,4.026,5.745
			c1.601,2.293,2.675,4.948,4.241,7.276c2.051,3.049,4.352,5.932,6.569,8.877c1.594,2.127,3.243,4.22,4.83,6.354
			c3.534,4.733,6.479,9.944,11.351,13.575c1.04,0.776,1.802,1.934,2.688,2.911c2.578,2.828,4.982,5.835,7.768,8.434
			c3.756,3.492,7.941,6.527,11.705,10.02c5.322,4.941,8.98,0.187,13.042-2.023c1.788-0.97,3.354-2.356,4.961-3.631
			c1.289-1.026,2.585-2.079,3.646-3.319c0.284-0.325-0.063-1.691-0.534-2.079c-3.354-2.744-6.881-5.281-10.221-8.046
			c-2.599-2.148-5.031-4.511-7.484-6.832c-3.167-3-6.375-5.967-9.348-9.147c-0.957-1.019-1.344-2.64-1.781-4.047
			c-0.638-2.086-1.331-4.199-1.566-6.347c-0.25-2.273,0.811-2.973,3.042-3.216c3.818-0.416,6.833,1.622,9.764,3.354
			c6.632,3.922,13.007,8.281,19.507,12.432c2.557,1.628,5.184,3.153,7.754,4.761c1.379,0.859,2.682,1.864,4.082,2.689
			c2.495,1.462,4.124,1.095,6.41-0.88c1.005-0.866,2.328-1.393,3.569-1.927c2.328-0.998,4.664-1.989,7.054-2.8
			c3.16-1.067,6.25-0.464,9.244,0.783c1.165,0.485,2.446,0.887,3.007-0.568c1.802-4.636,3.486-9.328,5.128-14.026
			c1.04-2.973,1.829-6.042,2.91-9.001c2.072-5.655,4.186-11.295,6.458-16.874c1.337-3.292,3.084-6.424,4.518-9.68
			c0.859-1.947,1.483-3.992,2.197-6.001c0.104-0.312,0.021-0.741,0.208-0.963c2.869-3.485,1.122-6.95-0.36-10.145
			c-1.407-3.021-3.5-5.717-5.288-8.558c-1.206-1.927-2.28-3.957-3.659-5.752c-1.268-1.642-3.063-2.89-4.283-4.56
			c-2.141-2.917-3.853-6.16-6.063-9.015c-1.372-1.774-3.327-3.104-5.038-4.608c-2.093-1.83-4.158-3.694-6.327-5.419
			c-1.906-1.51-3.929-2.869-5.911-4.275c-3.007-2.141-5.953-4.379-9.071-6.348c-2.758-1.746-5.703-3.195-8.586-4.733
			c-2.134-1.143-4.234-2.37-6.452-3.305c-4.643-1.968-9.362-3.756-14.04-5.634c-2.848-1.15-5.647-2.412-8.53-3.472
			c-2.495-0.908-5.038-1.739-7.616-2.363c-2.73-0.666-5.537-0.998-8.294-1.539c-5.031-0.991-10-2.432-15.072-2.938
			c-5.641-0.568-11.386-0.638-17.04-0.27c-4.483,0.284-8.801,1.864-12.051,5.287c-1.081,1.137-1.996,2.522-2.675,3.943
			c-1.614,3.368-3.326,6.729-4.463,10.27c-1.462,4.553-1.843,9.245-1.227,14.109c0.465,3.673,1.268,7.068,2.599,10.533
			c1.178,3.09,1.462,6.618,1.58,9.972c0.048,1.462-0.956,3.735-2.114,4.275c-1.413,0.651-3.762,0.375-5.231-0.402
			c-2.807-1.497-5.641-3.284-7.789-5.585c-2.342-2.487-4.179-5.564-5.751-8.634c-1.58-3.069-2.931-6.368-3.708-9.715
			c-0.762-3.298-0.797-6.791-0.936-10.2c-0.18-4.462,1.961-8.302,3.285-12.411c1.607-4.996,4.331-9.126,7.491-12.993
			c1.996-2.446,4.726-4.379,7.373-6.167c3.292-2.238,6.847-4.089,10.284-6.105c1.711-1.005,3.319-2.308,5.163-2.924
			c1.836-0.616,3.908-0.693,5.883-0.734c4.795-0.097,9.604-0.132,14.407-0.021c3.763,0.09,7.525,0.326,11.274,0.7
			c1.622,0.166,3.174,0.949,4.795,1.268c3.673,0.734,7.366,1.345,11.053,2.023c1.774,0.326,3.597,0.534,5.315,1.074
			c2.245,0.707,4.359,1.843,6.618,2.508c3.285,0.963,6.68,1.539,9.944,2.536c2.19,0.666,4.199,1.906,6.368,2.661
			c3.957,1.379,8.011,2.488,11.954,3.908c2.522,0.915,4.927,2.176,7.374,3.306c2.21,1.025,4.414,2.072,6.604,3.139
			c0.596,0.284,1.123,0.707,1.698,1.046c3.132,1.815,6.299,3.576,9.39,5.467c1.303,0.804,2.439,1.885,3.659,2.834
			c5.724,4.456,11.337,9.064,17.22,13.305c2.966,2.135,4.803,5.094,7.11,7.72c2.272,2.571,4.753,4.955,7.068,7.498
			c2.904,3.194,5.731,6.452,8.586,9.695c0.249,0.284,0.374,0.748,0.679,0.928c1.109,0.638,2.273,1.192,3.417,1.774
			c0.381-1.614,1.094-3.229,1.067-4.837c-0.049-3.09-0.693-6.167-0.749-9.258c-0.049-2.585,0.457-5.176,0.596-7.769
			c0.173-3.271,0.188-6.548,0.346-9.819c0.09-1.83,0.361-3.645,0.541-5.467c0.263-2.689,0.36-5.405,0.817-8.06
			c0.88-5.148,1.822-10.297,3.042-15.37c0.354-1.449,1.732-2.668,2.682-3.957c3.534-4.782,8.572-7.81,13.305-11.15
			c1.088-0.769,2.737-0.929,4.144-1.019c3.666-0.236,7.387-0.651,11.004-0.264c2.584,0.277,5.135,1.566,7.54,2.73
			c2.03,0.984,3.16,0.7,3.666-1.628c1.185-5.46,2.225-10.956,3.479-16.402c1.087-4.747,2.39-9.452,3.568-14.178
			c0.853-3.402,1.469-6.875,2.522-10.214c1.248-3.957,2.467-8.018,4.414-11.656c2.301-4.282,5.308-8.191,8.129-12.182
			c0.949-1.337,2.197-2.488,3.423-3.61c1.622-1.483,4.733,0.118,4.996,2.765c0.326,3.243,0.493,6.535,0.347,9.785
			c-0.256,5.648-0.52,11.316-1.31,16.902c-0.721,5.059-2.231,10.006-3.25,15.03c-0.812,4.019-1.379,8.087-2.093,12.12
			c-0.312,1.747-0.7,3.472-1.067,5.205c-1.213,5.793-2.419,11.579-3.652,17.366c-1.802,8.433-0.201,15.827,5.8,22.396
			c3.271,3.59,5.662,7.893,6.943,12.833c1.088,4.207,3,8.226,4.774,12.224c2.523,5.675,5.434,11.191,6.313,17.456
			c0.083,0.582,0.478,1.115,0.665,1.69c1.352,4.179,2.661,8.378,4.04,12.55c0.915,2.772,2.023,5.488,2.876,8.281
			c0.589,1.947,0.908,3.978,1.316,5.98c0.742,3.693,1.663,7.359,2.141,11.087c1.005,7.817,1.705,15.668,2.668,23.491
			c0.567,4.657,1.545,9.272,2.058,13.929c0.347,3.077,0.27,6.202,0.242,9.3c-0.048,5.495-0.27,10.99-0.291,16.486
			C408.113,269.811,408.494,273.262,408.404,276.706z"/>
	</g>
</g>
</svg>
